<svg width="503.75" height="92.82210796012916" viewBox="0 0 374.89473684210526 69.07894736842105" class="looka-1j8o68f"><defs id="SvgjsDefs4820"></defs><g id="SvgjsG4821" featurekey="nRdZyp-0" transform="matrix(1.023391812865497,0,0,1.023391812865497,-5.116959064327485,-16.630116959064328)" fill="#444f5a"><g xmlns="http://www.w3.org/2000/svg"><path fill-rule="evenodd" clip-rule="evenodd" d="M18.523,59.698l65.228,2.475v2.813l-67.5,2.452L18.523,59.698z M10.625,73.13   l78.75,2.475l-2.273-7.74l-76.478,2.452V73.13z M7.273,76.01L95,78.485v5.265H5L7.273,76.01z M21.875,56.817l56.25,2.475   l-2.272-7.74l-53.978,2.475V56.817z M29.772,43.385L72.5,45.86v2.812l-45,2.475L29.772,43.385z M33.125,40.528l33.75,2.452   l-2.272-7.74l-31.478,2.475V40.528z M41.022,27.095l20.228,2.452v2.813l-22.5,2.475L41.022,27.095z M44.375,24.215l11.25,2.475   L49.82,16.25L44.375,24.215z"></path></g></g><g id="SvgjsG4822" featurekey="Q4qmbg-0" transform="matrix(3.7612491825650856,0,0,3.7612491825650856,115.34504924769928,-13.611643798693432)" fill="#444f5a"><path d="M3.26 13.04 l-2.2 -1.26 c1.1 -1.24 2.58 -1.82 4.12 -1.82 c2.96 0 4.16 1.62 4.16 3.14 l0 6.9 l-2.96 0 l0 -0.7 c-0.46 0.48 -1.28 0.84 -2.2 0.84 c-2.7 0 -3.74 -1.2 -3.74 -3.04 c0 -2.08 1.68 -3.48 4.4 -3.48 l1.54 0 c0 -0.74 -0.56 -1.22 -1.4 -1.22 c-0.86 0 -1.28 0.16 -1.72 0.64 z M6.38 16.740000000000002 l0 -0.88 l-1.74 0 c-0.78 0 -1.36 0.54 -1.24 1.3 c0.08 0.54 0.56 0.76 1.24 0.76 c1.3 0 1.74 -0.74 1.74 -1.18 z M17.60770833333333 10.26 l-0.4 2.22 c-0.74 -0.32 -0.88 -0.26 -1.22 -0.26 c-1.2 0 -1.9 0.64 -1.9 2.22 l0 5.56 l-2.96 0 l0 -9.88 l2.96 0 l0 0.88 c0.38 -0.68 1.42 -1.02 2.08 -1.02 c0.62 0 0.98 0.02 1.44 0.28 z M20.915416666666662 10.12 l0 9.88 l-2.96 0 l0 -9.88 l2.96 0 z M20.995416666666664 7.279999999999999 c0 0.84 -0.68 1.5 -1.58 1.5 c-0.86 0 -1.56 -0.66 -1.56 -1.5 c0 -0.82 0.7 -1.46 1.56 -1.46 c0.9 0 1.58 0.64 1.58 1.46 z M26.063124999999996 15.8 c0 0.72 -0.02 1.92 1.08 1.92 c0.54 0 0.88 -0.22 1.26 -0.5 l0 2.44 c-0.46 0.26 -1.02 0.5 -1.62 0.5 c-2.54 0 -3.68 -1.08 -3.68 -4.36 l0 -3.24 l-1.1 0 l0 -2.44 l1.1 0 l0 -2.84 l2.96 0 l0 2.84 l2.34 0 l0 2.44 l-2.34 0 l0 3.24 z M39.63083333333333 14.36 l0 5.64 l-2.96 0 l0 -5.64 c0 -1.52 -0.4 -2.16 -1.56 -2.16 c-1.2 0 -1.9 0.64 -1.9 2.16 l0 5.64 l-2.96 0 l0 -14.52 l2.96 0 l0 5.74 c0.38 -1.1 1.82 -1.24 2.68 -1.24 c2.76 0 3.74 1.34 3.74 4.38 z M57.298541666666665 20 l-2.98 0 l0 -5.64 c0 -1.52 -0.42 -2.16 -1.54 -2.16 c-1.2 0 -1.9 0.64 -1.9 2.16 l0 5.64 l-2.98 0 l0 -5.64 c0 -1.52 -0.4 -2.16 -1.54 -2.16 c-1.2 0 -1.92 0.64 -1.92 2.16 l0 5.64 l-2.96 0 l0 -9.88 l2.96 0 l0 0.9 c0.7 -0.7 1.76 -1.04 2.7 -1.04 c1.4 0 2.3 0.52 2.94 1.34 c0.54 -0.66 1.7 -1.26 3.44 -1.34 c2.78 0 3.78 1.32 3.78 4.38 l0 5.64 z M63.786249999999995 12.42 c-1.22 0 -2.24 1.08 -2.24 2.66 c0 1.56 1.02 2.64 2.24 2.64 c1.24 0 2.26 -1.08 2.26 -2.64 c0 -1.58 -1.02 -2.66 -2.26 -2.66 z M63.786249999999995 9.98 c2.9 0 5.22 2.18 5.22 5.1 s-2.32 5.08 -5.22 5.08 c-2.88 0 -5.2 -2.16 -5.2 -5.08 s2.32 -5.1 5.2 -5.1 z"></path></g></svg>