<svg width="503.75" height="92.822" viewBox="0 0 374.895 69.079" class="looka-1j8o68f"><path fill-rule="evenodd" clip-rule="evenodd" d="m13.84 44.464 66.753 2.533v2.879l-69.079 2.51 2.325-7.922zM5.756 58.211l80.592 2.532-2.326-7.92-78.267 2.509v2.879zm-3.43 2.947 89.778 2.533v5.388H0l2.326-7.921zM17.27 41.516l57.566 2.533-2.326-7.921-55.24 2.533v2.855zM25.35 27.77l43.728 2.533v2.877l-46.053 2.533 2.325-7.943zm3.432-2.924 34.54 2.51-2.326-7.922-32.214 2.533v2.879zm8.082-13.747 20.7 2.509v2.879L34.54 19.02l2.326-7.921zm3.431-2.948 11.513 2.533L45.87 0l-5.573 8.151z" xmlns="http://www.w3.org/2000/svg" fill="#444f5a"/><path d="m127.607 35.435-8.275-4.74c4.137-4.663 9.704-6.845 15.496-6.845 11.134 0 15.647 6.094 15.647 11.81v25.953h-11.133V58.98c-1.73 1.806-4.815 3.16-8.275 3.16-10.155 0-14.067-4.514-14.067-11.434 0-7.824 6.319-13.09 16.55-13.09h5.792c0-2.783-2.106-4.588-5.266-4.588-3.235 0-4.814.602-6.47 2.407zm11.735 13.917v-3.31h-6.545c-2.934 0-5.115 2.03-4.664 4.89.301 2.03 2.107 2.858 4.664 2.858 4.89 0 6.545-2.783 6.545-4.438zm42.23-24.373-1.504 8.35c-2.784-1.204-3.31-.978-4.59-.978-4.513 0-7.146 2.407-7.146 8.35v20.912H157.2v-37.16h11.133v3.31c1.43-2.559 5.341-3.837 7.824-3.837 2.332 0 3.686.075 5.416 1.053zm12.441-.527v37.161H182.88v-37.16h11.133zm.301-10.682c0 3.16-2.558 5.642-5.943 5.642-3.234 0-5.867-2.482-5.867-5.642 0-3.084 2.633-5.491 5.867-5.491 3.385 0 5.943 2.407 5.943 5.491zm19.061 32.046c0 2.708-.075 7.222 4.062 7.222 2.031 0 3.31-.828 4.74-1.88v9.177c-1.73.977-3.837 1.88-6.094 1.88-9.554 0-13.841-4.062-13.841-16.399V33.63h-4.138v-9.178h4.138V13.77h11.133v10.682h8.801v9.178h-8.801v12.186zm51.031-5.416v21.213h-11.133V40.4c0-5.717-1.504-8.124-5.867-8.124-4.514 0-7.147 2.407-7.147 8.124v21.213h-11.133V7h11.133v21.59c1.43-4.138 6.846-4.664 10.08-4.664 10.381 0 14.067 5.04 14.067 16.474zm66.453 21.213h-11.208V40.4c0-5.717-1.58-8.124-5.793-8.124-4.513 0-7.146 2.407-7.146 8.124v21.213h-11.209V40.4c0-5.717-1.504-8.124-5.792-8.124-4.513 0-7.222 2.407-7.222 8.124v21.213h-11.133v-37.16h11.133v3.384c2.633-2.633 6.62-3.911 10.156-3.911 5.266 0 8.65 1.955 11.058 5.04 2.031-2.483 6.394-4.74 12.939-5.04 10.456 0 14.217 4.964 14.217 16.474v21.213zm24.402-28.51c-4.589 0-8.425 4.062-8.425 10.005 0 5.868 3.836 9.93 8.425 9.93 4.664 0 8.5-4.062 8.5-9.93 0-5.943-3.836-10.005-8.5-10.005zm0-9.177c10.908 0 19.634 8.2 19.634 19.182s-8.726 19.107-19.634 19.107c-10.832 0-19.558-8.124-19.558-19.107s8.726-19.182 19.558-19.182z" fill="#444f5a"/></svg>